# xmcd
#
# Track frame offsets: 
#        150
#        18599
#        40159
#        58016
#        75850
#        91390
#        106019
#        124630
#        141043
#        159056
#        176220
#        193875
#        211563
#        228685
#
# Disc length: 3214 seconds
#
# Revision: 1
# Processed by: cddbd v1.5.2PL0 Copyright (c) Steve Scherf et al.
# Submitted via: ExactAudioCopy v0.99pb4
#
DISCID=ab0c8c0e
DTITLE=ดาวตลกเสียงอิสาน - ดาวไถ
DYEAR=2008
DGENRE=Country
TTITLE0=เหตุเกิดตอนฮอลิเดย์
TTITLE1=ดาวไถ
TTITLE2=อบต.สอบตก
TTITLE3=ยูบีซี
TTITLE4=จีบสาวหน้าฮ้าน
TTITLE5=มีเมียแก่
TTITLE6=จิ๊กโก๋ดับแนว
TTITLE7=โก๋โลเดียว
TTITLE8=ฝันเห็นหมี
TTITLE9=ซังแม่เฒ่าหลายๆ
TTITLE10=เมียไล่ไปไต้กบ
TTITLE11=ชมรมขนหัวลุก
TTITLE12=คุณบักนึก
TTITLE13=อีแต๊กอินเตอร์
EXTD=
EXTT0=
EXTT1=
EXTT2=
EXTT3=
EXTT4=
EXTT5=
EXTT6=
EXTT7=
EXTT8=
EXTT9=
EXTT10=
EXTT11=
EXTT12=
EXTT13=
PLAYORDER=
